<?xml version="1.0" encoding="UTF-8"?>
<svg width="512" height="512" viewBox="0 0 512 512" fill="none" xmlns="http://www.w3.org/2000/svg">
  <defs>
    <linearGradient id="house-gold" x1="96" y1="72" x2="416" y2="440" gradientUnits="userSpaceOnUse">
      <stop offset="0%" stop-color="#FFF3B0"/>
      <stop offset="24%" stop-color="#F7D66C"/>
      <stop offset="52%" stop-color="#D8A73A"/>
      <stop offset="78%" stop-color="#B77D18"/>
      <stop offset="100%" stop-color="#FFF0A6"/>
    </linearGradient>
    <linearGradient id="house-shine" x1="164" y1="112" x2="356" y2="400" gradientUnits="userSpaceOnUse">
      <stop offset="0%" stop-color="#FFFFFF" stop-opacity="0.38"/>
      <stop offset="100%" stop-color="#FFFFFF" stop-opacity="0"/>
    </linearGradient>
  </defs>
  <rect x="28" y="28" width="456" height="456" rx="132" fill="#08111F"/>
  <rect x="28" y="28" width="456" height="456" rx="132" fill="url(#house-shine)"/>
  <path
    d="M143 234.5C143 222.4 149.1 211.1 159.3 204.4L244.3 148.6C251.6 143.8 261 143.8 268.3 148.6L353.3 204.4C363.5 211.1 369.6 222.4 369.6 234.5V388C369.6 400.7 359.3 411 346.6 411H165.4C152.7 411 142.4 400.7 142.4 388V234.5H143Z"
    fill="url(#house-gold)"
  />
  <path
    d="M187 235.5V364.5C187 373.3 194.2 380.5 203 380.5H309C317.8 380.5 325 373.3 325 364.5V235.5"
    fill="#08111F"
  />
  <path
    d="M175 226.5L250 177.2C253.8 174.7 258.7 174.7 262.5 177.2L337.5 226.5"
    stroke="#FFF6D0"
    stroke-width="20"
    stroke-linecap="round"
    stroke-linejoin="round"
  />
  <path
    d="M222 363V292C222 267.1 242.1 247 267 247C291.9 247 312 267.1 312 292V363"
    fill="url(#house-gold)"
  />
  <path
    d="M222 363V292C222 267.1 242.1 247 267 247C291.9 247 312 267.1 312 292V363"
    stroke="#FFF6D0"
    stroke-width="14"
    stroke-linecap="round"
    stroke-linejoin="round"
  />
  <circle cx="256" cy="304" r="10" fill="#FFF6D0"/>
  <path
    d="M202 395H310"
    stroke="#FFF0A6"
    stroke-width="14"
    stroke-linecap="round"
  />
</svg>
